<?xml version="1.0" standalone="no"?>
<!DOCTYPE svg PUBLIC "-//W3C//DTD SVG 20010904//EN"
 "http://www.w3.org/TR/2001/REC-SVG-20010904/DTD/svg10.dtd">
<svg version="1.0" xmlns="http://www.w3.org/2000/svg"
 width="220.000000pt" height="220.000000pt" viewBox="0 0 220.000000 220.000000"
 preserveAspectRatio="xMidYMid meet">

<g transform="translate(0.000000,220.000000) scale(0.100000,-0.100000)"
fill="#000000" stroke="none">
<path d="M1020 2104 c-55 -30 -170 -96 -245 -141 -11 -7 -27 -15 -35 -19 -13
-7 -109 -63 -160 -94 -8 -5 -64 -37 -124 -72 -182 -105 -212 -122 -237 -139
l-24 -16 0 -516 c0 -501 1 -516 20 -537 11 -12 29 -26 40 -32 11 -5 29 -14 40
-21 12 -7 70 -41 130 -76 61 -35 122 -72 137 -82 15 -11 30 -19 33 -19 3 0 22
-11 43 -23 20 -13 57 -35 82 -49 25 -14 117 -67 205 -117 88 -50 167 -91 175
-91 12 0 268 139 330 180 8 5 38 22 65 38 28 16 92 53 143 83 51 30 100 59
110 64 40 23 139 81 157 92 11 7 29 16 40 21 11 6 29 20 40 32 19 21 20 38 23
499 2 262 0 495 -3 519 -7 45 -12 50 -122 113 -23 13 -86 49 -140 80 -54 31
-114 66 -133 76 -52 29 -243 142 -260 153 -8 6 -22 13 -30 17 -8 4 -31 16 -50
28 -79 49 -150 85 -167 85 -10 0 -47 -16 -83 -36z m124 -15 c23 -11 55 -29 71
-39 17 -11 46 -29 65 -40 19 -11 42 -24 50 -29 104 -63 282 -166 329 -190 14
-7 57 -33 94 -58 37 -24 75 -47 85 -50 9 -4 43 -24 75 -45 l57 -39 0 -498 c0
-477 -1 -499 -19 -515 -16 -15 -22 -16 -43 -4 -12 7 -25 16 -28 19 -3 3 -12 9
-20 13 -48 22 -56 32 -54 64 1 17 -2 32 -7 32 -5 0 -14 11 -19 24 -11 30 -63
70 -112 86 -21 6 -38 17 -38 24 0 8 -16 24 -35 37 -19 13 -35 27 -35 31 0 4
-6 6 -12 4 -7 -3 -35 -7 -62 -10 l-49 -6 6 39 c5 43 -12 79 -31 67 -7 -4 -12
-2 -12 3 0 6 -7 11 -16 11 -9 0 -13 6 -10 13 2 6 10 31 17 55 6 23 15 42 20
42 5 0 9 9 9 19 0 11 5 23 10 26 13 8 13 55 0 55 -6 0 -10 33 -10 80 0 47 4
80 10 80 6 0 10 11 10 24 0 14 -4 28 -10 31 -5 3 -10 17 -10 31 0 13 -4 24
-10 24 -5 0 -10 11 -10 25 0 14 -5 25 -10 25 -6 0 -9 3 -8 8 3 15 -15 68 -32
92 -12 16 -20 55 -25 113 -4 48 -11 90 -16 93 -5 3 -9 21 -9 40 0 19 -5 34
-10 34 -6 0 -22 12 -35 28 -19 21 -24 23 -25 10 0 -9 5 -20 11 -24 6 -3 8 -17
5 -30 -5 -17 -3 -22 8 -18 18 7 33 -65 16 -76 -15 -9 -3 -55 27 -102 12 -21
23 -44 23 -53 0 -8 4 -15 9 -15 11 0 35 -115 27 -128 -7 -12 13 -74 28 -84 13
-8 13 -8 -49 -44 -46 -27 -48 -29 -25 -34 19 -5 11 -8 -30 -12 -40 -5 -61 -2
-78 9 -26 16 -41 11 -25 -9 14 -18 25 -68 15 -68 -4 0 -8 -9 -9 -21 -2 -20 -1
-20 16 -5 17 15 21 14 65 -10 47 -26 49 -26 84 -10 40 19 52 11 52 -36 0 -24
-4 -28 -30 -28 -17 0 -30 -5 -30 -12 0 -7 -11 -21 -24 -30 -23 -16 -24 -16
-56 17 -26 27 -37 32 -47 23 -17 -14 -153 -5 -162 11 -5 8 -22 1 -52 -20 -24
-18 -45 -35 -47 -39 -1 -4 -9 -15 -16 -25 -11 -16 -15 -16 -28 -5 -15 14 -13
60 3 60 5 0 2 11 -7 25 -9 14 -24 25 -33 25 -20 0 -42 48 -35 76 6 25 27 23
81 -7 31 -17 34 -17 96 3 55 17 69 27 91 61 31 46 28 56 -8 32 -21 -14 -32
-15 -54 -7 -41 16 -85 26 -102 23 -8 -2 -12 0 -8 5 4 4 3 13 -3 21 -9 9 -8 13
0 13 6 0 11 -4 11 -10 0 -5 9 -10 20 -10 36 0 21 17 -35 41 -30 13 -55 27 -55
30 0 4 11 17 24 30 23 22 23 24 7 66 -11 31 -12 46 -5 51 6 4 15 18 19 32 4
14 20 40 36 58 26 30 28 38 27 106 -2 47 3 84 11 99 12 22 12 28 -3 42 -15 15
-16 15 -17 -7 0 -19 -2 -20 -7 -5 -7 16 -10 16 -30 -8 -12 -14 -22 -32 -22
-40 0 -9 -7 -18 -15 -21 -9 -4 -15 -19 -15 -37 0 -27 -8 -58 -28 -117 -8 -24
-9 -29 -11 -49 0 -11 -7 -26 -14 -33 -18 -20 -55 -135 -62 -200 -4 -32 -11
-58 -16 -58 -5 0 -9 -9 -9 -19 0 -11 -4 -23 -10 -26 -5 -3 -10 -26 -10 -50 0
-24 5 -47 10 -50 6 -3 10 -28 10 -56 0 -27 4 -49 8 -49 4 0 14 -27 21 -61 8
-33 20 -63 27 -66 8 -3 14 -19 14 -36 0 -23 -11 -41 -45 -74 -25 -23 -45 -51
-45 -60 0 -10 -11 -27 -25 -37 -36 -27 -32 -46 9 -46 49 0 53 -16 10 -36 -20
-10 -39 -26 -41 -35 -6 -21 -53 -40 -82 -32 -15 4 -20 1 -16 -8 6 -18 -68 -61
-89 -53 -12 5 -15 2 -10 -10 3 -9 2 -16 -3 -16 -9 0 -25 -12 -71 -51 -10 -8
-30 0 -83 32 -38 23 -74 50 -79 60 -11 19 -14 958 -4 997 4 12 11 22 16 22 5
0 28 13 51 28 42 28 129 80 232 137 29 17 86 50 127 75 87 53 142 84 183 105
17 9 50 29 75 45 25 16 54 34 65 40 11 6 38 21 60 34 51 30 51 30 99 5z m-159
-809 c3 -6 -4 -10 -17 -10 -18 0 -20 2 -8 10 19 12 18 12 25 0z m78 -138 c10
-10 15 -21 12 -24 -9 -8 79 -20 97 -13 8 3 21 -1 28 -10 7 -8 18 -15 25 -15
12 0 45 -30 84 -75 11 -14 10 -18 -5 -30 -16 -11 -20 -10 -29 9 -38 78 -255
87 -304 13 l-19 -29 -16 34 c-16 32 -16 34 5 50 11 10 25 15 30 12 5 -3 9 -1
9 4 0 6 12 13 28 17 17 5 22 9 12 12 -44 14 -44 14 -15 38 36 29 38 30 58 7z
m185 -27 c14 -30 -1 -34 -33 -9 -17 13 -18 16 -5 24 22 14 26 13 38 -15z
m-328 -156 c0 -10 4 -20 9 -23 17 -11 -1 -54 -27 -66 -22 -10 -28 -9 -39 6
-16 22 -7 94 15 111 19 15 42 0 42 -28z m84 1 c-6 -25 -9 -29 -16 -16 -5 10
-5 24 2 37 16 28 22 19 14 -21z m177 14 c14 -8 11 -32 -6 -36 -10 -2 -12 -7
-5 -18 9 -13 11 -13 19 0 8 11 15 3 31 -35 25 -58 41 -143 29 -151 -5 -3 -9
-14 -9 -25 0 -11 -4 -17 -10 -14 -6 4 -9 -10 -9 -37 l2 -43 7 35 c4 20 8 27 9
15 2 -19 3 -18 11 3 10 23 39 31 41 10 4 -61 -5 -117 -22 -141 -26 -36 -49
-102 -40 -113 15 -17 -8 -69 -38 -87 -40 -23 -60 -21 -93 10 -24 23 -28 24
-34 10 -9 -25 -22 -21 -38 12 -9 16 -24 31 -35 34 -11 2 -29 23 -40 45 -28 55
-26 62 5 24 15 -18 32 -32 38 -32 6 0 4 5 -4 11 -13 9 -13 11 1 21 15 10 13
17 -18 70 -27 47 -34 69 -36 119 -1 34 3 63 9 67 6 4 14 17 18 30 10 29 20 28
35 -4 16 -37 23 -25 9 14 -11 27 -10 41 5 81 9 27 17 56 17 65 0 9 5 16 10 16
6 0 10 6 10 14 0 31 32 48 78 42 24 -3 48 -8 53 -12z m175 -21 c10 -16 17 -34
16 -40 -4 -19 18 -54 29 -47 19 11 59 -37 59 -72 0 -18 -4 -36 -10 -39 -5 -3
-10 4 -10 16 0 30 -40 69 -71 69 -36 0 -51 21 -53 77 -4 72 9 83 40 36z m-516
-85 c0 -13 -44 -27 -54 -17 -6 5 -2 17 9 29 14 15 21 17 32 9 7 -6 13 -16 13
-21z m118 -62 c-7 -8 -15 -12 -17 -11 -5 6 10 25 20 25 5 0 4 -6 -3 -14z
m-208 -27 c0 -5 -12 -9 -27 -9 -26 0 -26 1 -8 14 20 14 35 12 35 -5z m80 -25
c0 -8 -4 -12 -10 -9 -5 3 -10 10 -10 16 0 5 5 9 10 9 6 0 10 -7 10 -16z m665
-14 c3 -5 -1 -10 -9 -10 -9 0 -16 5 -16 10 0 6 4 10 9 10 6 0 13 -4 16 -10z
m-565 -140 c0 -5 -4 -10 -10 -10 -5 0 -10 5 -10 10 0 6 5 10 10 10 6 0 10 -4
10 -10z m-20 -24 c0 -3 -4 -8 -10 -11 -5 -3 -10 -1 -10 4 0 6 5 11 10 11 6 0
10 -2 10 -4z m203 -483 c-7 -2 -19 -2 -25 0 -7 3 -2 5 12 5 14 0 19 -2 13 -5z"/>
<path d="M1074 2022 c5 -8 66 -4 66 4 0 2 -16 4 -36 4 -19 0 -33 -4 -30 -8z"/>
<path d="M1014 2005 c-10 -8 -14 -15 -8 -15 5 0 19 7 30 15 10 8 14 15 8 15
-5 0 -19 -7 -30 -15z"/>
<path d="M1190 2001 c0 -6 5 -13 10 -16 6 -3 10 1 10 9 0 9 -4 16 -10 16 -5 0
-10 -4 -10 -9z"/>
<path d="M1180 1211 c0 -14 5 -19 15 -14 17 6 15 25 -3 31 -7 2 -12 -5 -12
-17z"/>
<path d="M1021 431 c-1 -27 2 -32 11 -23 8 8 8 17 0 34 -10 22 -11 21 -11 -11z"/>
</g>
</svg>
